<svg width="47" height="48" viewBox="0 0 47 48" fill="none" xmlns="http://www.w3.org/2000/svg">
<path d="M40.2318 30.4121L40.9838 31.9396C41.3598 32.6916 42.3233 33.3966 43.1223 33.5376L44.1328 33.7021C47.2113 34.2191 47.9163 36.4751 45.7308 38.6841L44.7908 39.6241C44.1563 40.2586 43.8273 41.4806 44.0153 42.3736L44.1328 42.9376C44.9788 46.6506 43.0048 48.0841 39.7853 46.1336L39.1038 45.7106C38.2813 45.2171 36.9183 45.2171 36.0958 45.7106L35.4143 46.1336C32.1713 48.0841 30.2208 46.6506 31.0668 42.9376L31.1843 42.3736C31.3723 41.5041 31.0433 40.2586 30.4088 39.6241L29.4688 38.6841C27.2833 36.4516 27.9883 34.2191 31.0668 33.7021L32.0773 33.5376C32.8998 33.3966 33.8398 32.6916 34.2158 31.9396L34.9678 30.4121C36.4248 27.4746 38.7748 27.4746 40.2318 30.4121Z" fill="#292D32"/>
<path d="M33.3465 0H13.6535C5.0995 0 0 5.0995 0 13.6535V33.3465C0 41.9005 5.0995 47 13.6535 47H26.0615C26.884 47 27.4715 46.154 27.3775 45.3315C27.2835 44.4385 27.3305 43.381 27.6125 42.159C27.6595 41.9945 27.6125 41.8065 27.4715 41.6655L26.9545 41.1485C24.957 39.1275 24.2285 36.6835 24.9335 34.451C25.662 32.242 27.683 30.691 30.4795 30.221L31.1845 30.1035L31.819 28.8345C33.1115 26.2025 35.2265 24.675 37.6 24.675C39.9735 24.675 42.0885 26.2025 43.381 28.8345L43.7335 29.563C43.898 29.9155 44.227 30.1505 44.603 30.221C44.8145 30.268 45.026 30.315 45.2375 30.362C46.06 30.5735 47 29.9155 47 29.046V13.6535C47 5.0995 41.9005 0 33.3465 0ZM33.511 16.356L28.0825 23.359C27.401 24.2285 26.4375 24.7925 25.333 24.91C24.252 25.051 23.1475 24.7455 22.3015 24.064L18.001 20.727C17.8365 20.586 17.6485 20.586 17.5545 20.6095C17.4605 20.6095 17.296 20.6565 17.155 20.8445L11.562 28.106C11.2095 28.5525 10.6925 28.7875 10.152 28.7875C9.776 28.7875 9.4 28.67 9.071 28.4115C8.2955 27.824 8.1545 26.7195 8.742 25.944L14.335 18.6825C15.0165 17.813 15.98 17.249 17.0845 17.108C18.189 16.967 19.27 17.2725 20.1395 17.954L24.44 21.338C24.6045 21.479 24.769 21.4555 24.8865 21.4555C24.9805 21.4555 25.145 21.4085 25.286 21.2205L30.7145 14.2175C31.302 13.442 32.4065 13.301 33.182 13.912C33.981 14.4995 34.0985 15.604 33.511 16.356Z" fill="#292D32"/>
</svg>
