<svg width="46" height="51" viewBox="0 0 46 51" fill="none" xmlns="http://www.w3.org/2000/svg">
<path d="M45.1186 23.072V11.957C45.1186 9.88079 43.5488 7.52611 41.5992 6.74122L27.4965 0.968457C24.3316 -0.322819 20.7616 -0.322819 17.5967 0.968457L3.49404 6.74122C1.56979 7.52611 0 9.88079 0 11.957V23.072C0 35.4531 8.98829 47.0492 21.268 50.442C22.1035 50.6699 23.015 50.6699 23.8505 50.442C36.1303 47.0492 45.1186 35.4531 45.1186 23.072ZM24.4582 27.5029V34.1618C24.4582 35.1999 23.5973 36.0607 22.5592 36.0607C21.5212 36.0607 20.6603 35.1999 20.6603 34.1618V27.5029C18.1031 26.6927 16.2296 24.3127 16.2296 21.5022C16.2296 18.0082 19.0652 15.1725 22.5592 15.1725C26.0533 15.1725 28.889 18.0082 28.889 21.5022C28.889 24.338 27.0154 26.6927 24.4582 27.5029Z" fill="#292D32"/>
</svg>
