<svg width="36" height="52" viewBox="0 0 36 52" fill="none" xmlns="http://www.w3.org/2000/svg">
<path d="M28.2238 20.0809H7.58615C4.66618 20.0809 3.65162 18.1261 5.35906 15.7505L15.6778 1.29914C16.8903 -0.433046 18.9195 -0.433046 20.132 1.29914L30.4509 15.7505C32.1583 18.1261 31.1437 20.0809 28.2238 20.0809Z" fill="#292D32"/>
<path d="M31.7384 39.7246H4.07293C0.163143 39.7246 -1.17311 37.1263 1.12822 33.9589L11.0017 20.0767H24.8096L34.6831 33.9589C36.9844 37.1263 35.6481 39.7246 31.7384 39.7246Z" fill="#292D32"/>
<path d="M19.7625 39.728V49.6262C19.7625 50.6408 18.9212 51.4821 17.9066 51.4821C16.8921 51.4821 16.0507 50.6408 16.0507 49.6262V39.728H19.7625Z" fill="#292D32"/>
</svg>
